<?xml version="1.0" encoding="UTF-8"?>
<svg width="180px" height="180px" viewBox="0 0 180 180" version="1.1" xmlns="http://www.w3.org/2000/svg" xmlns:xlink="http://www.w3.org/1999/xlink" style="background: #FFFFFF;">
    <!-- Generator: Sketch 45.2 (43514) - http://www.bohemiancoding.com/sketch -->
    <title>icon</title>
    <desc>Created with Sketch.</desc>
    <defs></defs>
    <g id="Page-1" stroke="none" stroke-width="1" fill="none" fill-rule="evenodd">
        <g id="icon">
            <g id="Group-6">
                <rect id="Rectangle-2-copy" fill="#19222A" x="0" y="0" width="180" height="180"></rect>
                <g id="Group-5" transform="translate(45.000000, 54.000000)">
                    <path d="M1.6128,2.27386047 L30.8541767,2.27386047 C37.2210179,2.27386047 42.2093959,3.98041084 45.8194605,7.39356279 C47.4603989,8.90322615 48.7239025,10.7082314 49.6100093,12.8086326 C50.4961161,14.9090338 50.9391628,17.3047679 50.9391628,19.995907 C50.9391628,23.9997968 50.0366602,27.232397 48.2316279,29.6938047 C46.4265956,32.1552123 43.7519061,34.0094449 40.2074791,35.2565581 L40.2074791,35.5519256 C44.2770064,36.6677637 47.5752432,38.6532694 50.1022884,41.5085023 C52.6293336,44.3637352 53.8928372,48.1542461 53.8928372,52.8801488 C53.8928372,58.5249771 52.1862868,63.1195358 48.7731349,66.6639628 C46.9352838,68.5674514 44.6215953,70.0442738 41.832,71.0944744 C39.0424047,72.144675 35.8098044,72.6697674 32.1341023,72.6697674 L1.6128,72.6697674 L1.6128,2.27386047 Z M31.7402791,66.6639628 C34.4970556,66.6639628 36.8435624,66.3029617 38.7798698,65.5809488 C40.7161771,64.8589359 42.3406818,63.8743876 43.6534326,62.6272744 C46.0163839,60.2643231 47.1978419,57.048132 47.1978419,52.9786047 C47.1978419,48.4496146 45.786656,44.9708773 42.9642419,42.5422884 C40.1418277,40.1136995 36.4005442,38.8994233 31.7402791,38.8994233 L8.20933953,38.8994233 L8.20933953,66.6639628 L31.7402791,66.6639628 Z M30.7557209,33.188986 C35.0877984,33.188986 38.4188535,32.0403464 40.748986,29.7430326 C43.0791186,27.4457187 44.2441674,24.3608008 44.2441674,20.488186 C44.2441674,16.4842963 43.0627095,13.4157874 40.6997581,11.2825674 C38.3368068,9.14934747 35.0877974,8.08275349 30.9526326,8.08275349 L8.20933953,8.08275349 L8.20933953,33.188986 L30.7557209,33.188986 Z" id="B-\" fill="#FFFFFF"></path>
                    <polygon id="Path" fill="#CB0012" points="65.960707 2.27386047 72.3603349 2.27386047 100.321786 72.6697674 93.9221581 72.6697674"></polygon>
                </g>
            </g>
        </g>
    </g>
</svg>