<?xml version="1.0" encoding="utf-8"?>
<!-- Generator: Adobe Illustrator 15.0.0, SVG Export Plug-In . SVG Version: 6.00 Build 0)  -->
<!DOCTYPE svg PUBLIC "-//W3C//DTD SVG 1.1//EN" "http://www.w3.org/Graphics/SVG/1.1/DTD/svg11.dtd">
<svg version="1.1" id="Layer_1" xmlns="http://www.w3.org/2000/svg" xmlns:xlink="http://www.w3.org/1999/xlink" x="0px" y="0px"
	 width="841.89px" height="595.28px" viewBox="0 0 841.89 595.28" enable-background="new 0 0 841.89 595.28" xml:space="preserve">
<g>
	<path d="M66.213,247.28h21.741v34.881h0.256c4.473-6.646,10.74-9.964,18.925-9.964c18.797,0,28.004,17.715,28.004,36.401
		c0,20.202-8.823,39.579-29.665,39.579c-7.674,0-14.068-3.598-18.291-10.377h-0.256v8.304H66.213V247.28z M87.183,309.428
		c0,12.594,3.328,20.758,13.174,20.758c9.718,0,13.046-10.932,13.046-20.758c0-9.139-3.328-19.239-12.918-19.239
		C94.601,290.188,87.183,294.617,87.183,309.428z"/>
	<path d="M145.895,296.416c0.383-9.414,4.473-15.504,10.356-19.239c5.884-3.599,13.558-4.98,21.103-4.98
		c15.73,0,30.943,3.736,30.943,24.082v31.416c0,6.09,0,12.736,2.562,18.409h-21.869c-0.767-2.218-1.023-4.43-1.278-6.784
		c-5.629,6.371-13.94,8.857-21.869,8.857c-12.658,0-22.637-6.916-22.637-21.728c0-23.393,23.531-21.594,38.622-24.911
		c3.711-0.831,5.756-2.217,5.756-6.646c0-5.397-6.012-7.472-10.485-7.472c-6.012,0-9.851,2.904-10.873,8.995H145.895z
		 M174.025,333.646c10.357,0,13.813-6.365,13.302-21.176c-3.071,2.074-8.695,2.492-13.429,3.873
		c-4.857,1.248-8.951,3.46-8.951,9.139C164.947,331.292,169.169,333.646,174.025,333.646z"/>
	<path d="M265.858,300.57c-0.128-6.091-5.112-10.382-10.612-10.382c-12.151,0-14.068,11.212-14.068,21.176
		c0,9.271,3.711,18.821,12.918,18.821c7.545,0,11.38-4.703,12.402-12.317h21.103c-1.917,19.239-15.73,30.309-33.377,30.309
		c-19.952,0-34.783-14.806-34.783-36.812c0-22.838,13.425-39.167,34.783-39.167c16.496,0,31.204,9.409,32.737,28.374H265.858z"/>
	<path d="M298.483,247.28h21.741v50.936l19.819-23.944h25.192L340.938,301.4l27.365,44.703h-26.215l-16.24-28.929l-5.624,5.952
		v22.977h-21.741V247.28z"/>
	<path d="M391.206,322.435c0,3.598,1.405,6.228,3.578,8.027c2.05,1.661,4.989,2.492,8.057,2.492c4.223,0,10.234-1.938,10.234-7.609
		c0-5.541-6.779-6.646-10.617-7.615c-13.681-3.735-30.816-4.153-30.816-23.53c0-17.298,17.264-22.002,30.304-22.002
		c14.58,0,29.799,4.567,30.565,23.25h-20.074c0-3.047-1.027-4.983-2.817-6.228c-1.789-1.249-4.217-1.799-6.906-1.799
		c-3.578,0-9.334,0.413-9.334,5.396c0,6.778,14.579,8.027,24.553,10.382c13.429,2.905,16.88,13.426,16.88,19.373
		c0,19.239-16.88,25.604-31.843,25.604c-15.729,0-31.844-5.673-32.482-25.742H391.206z"/>
	<path d="M446.211,247.28h21.742v98.823h-21.742V247.28z"/>
	<path d="M482.404,296.416c0.383-9.414,4.473-15.504,10.357-19.239c5.883-3.599,13.557-4.98,21.103-4.98
		c15.729,0,30.943,3.736,30.943,24.082v31.416c0,6.09,0,12.736,2.561,18.409h-21.869c-0.767-2.218-1.022-4.43-1.277-6.784
		c-5.63,6.371-13.941,8.857-21.87,8.857c-12.658,0-22.637-6.916-22.637-21.728c0-23.393,23.53-21.594,38.622-24.911
		c3.712-0.831,5.757-2.217,5.757-6.646c0-5.397-6.013-7.472-10.485-7.472c-6.013,0-9.851,2.904-10.874,8.995H482.404z
		 M510.536,333.646c10.356,0,13.812-6.365,13.301-21.176c-3.072,2.074-8.695,2.492-13.429,3.873
		c-4.856,1.248-8.952,3.46-8.952,9.139C501.456,331.292,505.679,333.646,510.536,333.646z"/>
	<path d="M576.026,322.435c0,3.598,1.405,6.228,3.578,8.027c2.05,1.661,4.989,2.492,8.057,2.492c4.223,0,10.233-1.938,10.233-7.609
		c0-5.541-6.778-6.646-10.617-7.615c-13.68-3.735-30.815-4.153-30.815-23.53c0-17.298,17.264-22.002,30.305-22.002
		c14.579,0,29.798,4.567,30.564,23.25h-20.075c0-3.047-1.027-4.983-2.816-6.228c-1.789-1.249-4.218-1.799-6.906-1.799
		c-3.579,0-9.334,0.413-9.334,5.396c0,6.778,14.579,8.027,24.553,10.382c13.43,2.905,16.88,13.426,16.88,19.373
		c0,19.239-16.88,25.604-31.843,25.604c-15.73,0-31.838-5.673-32.481-25.742H576.026z"/>
	<path d="M630.259,247.28h21.742v36.817h0.256c3.323-7.333,12.274-11.901,20.203-11.901c22.125,0,23.914,17.436,23.914,27.818
		v46.089h-21.742v-34.739c0-9.826,1.023-19.796-10.868-19.796c-8.184,0-11.763,7.478-11.763,15.367v39.168h-21.742V247.28z"/>
	<path d="M775.677,345.513h-26.131l-51.324-98.409h26.127L775.677,345.513z"/>
</g>
</svg>
