<?xml version="1.0" encoding="UTF-8" standalone="no"?>
<svg width="12px" height="12px" viewBox="0 0 12 12" version="1.1" xmlns="http://www.w3.org/2000/svg" xmlns:xlink="http://www.w3.org/1999/xlink" xmlns:sketch="http://www.bohemiancoding.com/sketch/ns">
    <!-- Generator: Sketch 3.3.1 (12005) - http://www.bohemiancoding.com/sketch -->
    <title>delete-icon</title>
    <desc>Created with Sketch.</desc>
    <defs></defs>
    <g id="Page-1" stroke="none" stroke-width="1" fill="none" fill-rule="evenodd" sketch:type="MSPage">
        <g id="Icons" sketch:type="MSArtboardGroup" transform="translate(-520.000000, -390.000000)" fill="#FFFFFF">
            <path d="M530.290146,390.292395 C530.676881,389.90566 531.313082,389.904077 531.704502,390.295498 C532.098652,390.689647 532.097312,391.320147 531.707605,391.709854 L528.125889,395.29157 C527.734634,395.682825 527.739917,396.322458 528.125889,396.70843 L531.707605,400.290146 C532.09434,400.676881 532.095923,401.313082 531.704502,401.704502 C531.310353,402.098652 530.679853,402.097312 530.290146,401.707605 L526.70843,398.125889 C526.317175,397.734634 525.677542,397.739917 525.29157,398.125889 L521.709854,401.707605 C521.323119,402.09434 520.686918,402.095923 520.295498,401.704502 C519.901348,401.310353 519.902688,400.679853 520.292395,400.290146 L523.874111,396.70843 C524.265366,396.317175 524.260083,395.677542 523.874111,395.29157 L520.292395,391.709854 C519.90566,391.323119 519.904077,390.686918 520.295498,390.295498 C520.689647,389.901348 521.320147,389.902688 521.709854,390.292395 L525.29157,393.874111 C525.682825,394.265366 526.322458,394.260083 526.70843,393.874111 L530.290146,390.292395 Z" id="delete-icon" sketch:type="MSShapeGroup"></path>
        </g>
    </g>
</svg>