<?xml version="1.0" encoding="UTF-8" standalone="no"?>
<svg width="12px" height="12px" viewBox="0 0 12 12" version="1.1" xmlns="http://www.w3.org/2000/svg" xmlns:xlink="http://www.w3.org/1999/xlink" xmlns:sketch="http://www.bohemiancoding.com/sketch/ns">
    <!-- Generator: Sketch 3.3.1 (12005) - http://www.bohemiancoding.com/sketch -->
    <title>grid-view-icon</title>
    <desc>Created with Sketch.</desc>
    <defs></defs>
    <g id="Page-1" stroke="none" stroke-width="1" fill="none" fill-rule="evenodd" sketch:type="MSPage">
        <g id="Icons" sketch:type="MSArtboardGroup" transform="translate(-574.000000, -399.000000)" fill="#FFFFFF">
            <path d="M575.009369,399 C574.45191,399 574,399.443353 574,400.009369 L574,401.990631 C574,402.54809 574.443353,403 575.009369,403 L576.990631,403 C577.54809,403 578,402.556647 578,401.990631 L578,400.009369 C578,399.45191 577.556647,399 576.990631,399 L575.009369,399 Z M583.009369,399 C582.45191,399 582,399.443353 582,400.009369 L582,401.990631 C582,402.54809 582.443353,403 583.009369,403 L584.990631,403 C585.54809,403 586,402.556647 586,401.990631 L586,400.009369 C586,399.45191 585.556647,399 584.990631,399 L583.009369,399 Z M575.009369,407 C574.45191,407 574,407.443353 574,408.009369 L574,409.990631 C574,410.54809 574.443353,411 575.009369,411 L576.990631,411 C577.54809,411 578,410.556647 578,409.990631 L578,408.009369 C578,407.45191 577.556647,407 576.990631,407 L575.009369,407 Z M583.009369,407 C582.45191,407 582,407.443353 582,408.009369 L582,409.990631 C582,410.54809 582.443353,411 583.009369,411 L584.990631,411 C585.54809,411 586,410.556647 586,409.990631 L586,408.009369 C586,407.45191 585.556647,407 584.990631,407 L583.009369,407 Z" id="grid-view-icon" sketch:type="MSShapeGroup"></path>
        </g>
    </g>
</svg>