<?xml version="1.0" encoding="utf-8"?>
<!-- Generator: Adobe Illustrator 16.0.0, SVG Export Plug-In . SVG Version: 6.00 Build 0)  -->
<!DOCTYPE svg PUBLIC "-//W3C//DTD SVG 1.1//EN" "http://www.w3.org/Graphics/SVG/1.1/DTD/svg11.dtd">
<svg version="1.1" id="Layer_1" xmlns="http://www.w3.org/2000/svg" xmlns:xlink="http://www.w3.org/1999/xlink" x="0px" y="0px"
	 width="40px" height="31px" viewBox="0 0 40 31" enable-background="new 0 0 40 31" xml:space="preserve">
<g>
	<path fill="#CB0012" d="M0-0.004h12.477c2.689,0,4.873,0.756,6.385,2.184c1.387,1.26,2.186,3.109,2.186,5.377
		c0,3.403-1.555,5.461-4.58,6.511v0.126c3.445,0.966,5.84,3.403,5.84,7.394c0,2.437-0.756,4.41-2.186,5.881
		c-1.553,1.597-3.99,2.562-7.098,2.562H0V-0.004z M12.436,13.186c3.654,0,5.754-2.142,5.754-5.419c0-3.402-2.184-5.292-5.67-5.292
		H2.814v10.711H12.436z M12.855,27.469c2.311,0,3.99-0.672,5.082-1.723c0.967-0.966,1.512-2.352,1.512-4.116
		c0-3.823-2.646-6.007-6.594-6.007H2.814v11.846H12.855z"/>
</g>
<path fill="#CB0012" d="M24.778-0.004h2.73l11.93,30.035h-2.73L24.778-0.004z"/>
</svg>
