<svg xmlns="http://www.w3.org/2000/svg" width="198" height="31"><g fill="#fff"><path d="M.206-.002h12.477c2.689 0 4.873.756 6.385 2.184 1.387 1.26 2.186 3.109 2.186 5.377 0 3.403-1.555 5.461-4.58 6.511v.126c3.445.966 5.84 3.403 5.84 7.394 0 2.437-.756 4.41-2.186 5.881-1.553 1.597-3.99 2.562-7.098 2.562h-13.024v-30.035zm12.436 13.19c3.654 0 5.754-2.142 5.754-5.419 0-3.402-2.184-5.292-5.67-5.292h-9.705v10.711h9.621zm.42 14.283c2.311 0 3.99-.672 5.082-1.723.967-.966 1.512-2.352 1.512-4.116 0-3.823-2.646-6.007-6.594-6.007h-10.041v11.846h10.041zM25.069 24.488c0-5.167 4.033-6.217 8.947-6.805 4.285-.505 5.84-.757 5.84-2.941v-.42c0-2.94-1.85-4.369-5.209-4.369-3.865 0-5.881 1.596-6.092 4.832h-2.562c.295-4.201 3.066-6.932 8.654-6.932 4.746 0 7.688 1.974 7.688 6.721v11.805c0 1.302.504 1.848 1.428 1.89.293 0 .588-.084.967-.168h.125v1.891c-.377.168-.924.336-1.764.336-1.891 0-3.066-.966-3.193-3.066v-.462h-.125c-1.219 1.722-3.445 3.738-7.604 3.738-4.033-.001-7.1-2.017-7.1-6.05zm14.828-2.31v-3.906c-1.387.756-3.527 1.134-5.629 1.428-3.654.504-6.469 1.051-6.469 4.789 0 3.024 2.268 3.948 4.83 3.948 4.749 0 7.268-3.277 7.268-6.259zM46.321 19.195c0-6.469 3.613-11.384 9.914-11.384 4.789 0 8.023 2.604 8.738 7.058h-2.605c-.629-3.235-2.771-4.874-6.133-4.874-4.998 0-7.225 4.159-7.225 9.2s2.268 9.157 7.184 9.157c3.695 0 6.006-2.31 6.426-5.797h2.479c-.504 4.915-3.738 8.023-8.904 8.023-6.344.001-9.874-4.914-9.874-11.383zM68.499-.002h2.604v18.777l10.797-10.46h3.318l-8.318 7.855 9.326 13.862h-3.026l-8.107-12.182-3.99 3.822v8.359h-2.604v-30.033zM86.685 23.27h2.646c.377 3.655 2.898 5.125 6.385 5.125 3.613 0 5.504-1.68 5.504-4.2 0-2.395-1.346-3.192-5.797-4.2-4.412-1.009-7.939-2.059-7.939-6.26 0-3.613 3.107-5.881 7.561-5.881 5.166 0 7.561 2.604 8.064 6.427h-2.604c-.295-2.814-2.227-4.285-5.461-4.285-3.361 0-4.957 1.596-4.957 3.613 0 2.479 2.059 3.066 6.217 4.032 4.369.924 7.52 2.017 7.52 6.512 0 3.864-3.107 6.469-8.148 6.469-5.8-.001-8.739-3.151-8.991-7.352zM107.558-.002h2.605v30.035h-2.605v-30.035zM113.856 24.488c0-5.167 4.033-6.217 8.949-6.805 4.283-.505 5.838-.757 5.838-2.941v-.42c0-2.94-1.848-4.369-5.209-4.369-3.865 0-5.881 1.596-6.09 4.832h-2.562c.293-4.201 3.066-6.932 8.652-6.932 4.748 0 7.688 1.974 7.688 6.721v11.805c0 1.302.504 1.848 1.428 1.89.295 0 .59-.084.967-.168h.127v1.891c-.379.168-.926.336-1.766.336-1.891 0-3.066-.966-3.191-3.066v-.462h-.127c-1.219 1.722-3.443 3.738-7.604 3.738-4.031-.001-7.1-2.017-7.1-6.05zm14.831-2.31v-3.906c-1.387.756-3.529 1.134-5.629 1.428-3.656.504-6.471 1.051-6.471 4.789 0 3.024 2.27 3.948 4.832 3.948 4.746 0 7.268-3.277 7.268-6.259zM134.856 23.27h2.646c.379 3.655 2.898 5.125 6.387 5.125 3.611 0 5.502-1.68 5.502-4.2 0-2.395-1.344-3.192-5.797-4.2-4.41-1.009-7.939-2.059-7.939-6.26 0-3.613 3.109-5.881 7.561-5.881 5.168 0 7.562 2.604 8.066 6.427h-2.605c-.293-2.814-2.225-4.285-5.461-4.285-3.359 0-4.955 1.596-4.955 3.613 0 2.479 2.057 3.066 6.217 4.032 4.369.924 7.52 2.017 7.52 6.512 0 3.864-3.109 6.469-8.15 6.469-5.798-.001-8.74-3.151-8.992-7.352zM155.731-.002h2.605v11.636h.084c1.469-2.184 3.822-3.78 7.268-3.78 4.031 0 6.93 2.394 6.93 6.764v15.416h-2.604v-15.165c0-3.277-1.891-4.79-4.957-4.79-3.697 0-6.721 2.604-6.721 6.175v13.778h-2.605v-30.034z"/></g><path fill="#fff" d="M182.486-.002h2.73l11.93 30.035h-2.73l-11.93-30.035z"/></svg>