<?xml version="1.0" encoding="UTF-8" standalone="no"?>
<svg width="32px" height="12px" viewBox="0 0 32 12" version="1.1" xmlns="http://www.w3.org/2000/svg" xmlns:xlink="http://www.w3.org/1999/xlink" xmlns:sketch="http://www.bohemiancoding.com/sketch/ns">
    <title>result-list-sprites</title>
    <description>Created with Sketch (http://www.bohemiancoding.com/sketch)</description>
    <defs>
        <polygon id="path-1" points="4 0 8 8 0 8 "></polygon>
    </defs>
    <g id="Page-1" stroke="none" stroke-width="1" fill="none" fill-rule="evenodd" sketch:type="MSPage">
        <g id="Artboard-5" sketch:type="MSArtboardGroup">
            <g id="Oval-397-+-Line-+-Triangle-1-+-Triangle-1-copy" sketch:type="MSLayerGroup">
                <g id="Oval-397-+-Line" transform="translate(20.000000, 0.000000)" fill="#797F8C" sketch:type="MSShapeGroup">
                    <path d="M2.55381904,3.9680326 C2.20192937,4.56354585 2,5.25819134 2,6 C2,8.20913916 3.79086084,10 6,10 C6.74180866,10 7.43645415,9.79807063 8.0319674,9.44618096 L7.81783085,9.23204441 L2.79289322,4.20710678 L2.55381904,3.9680326 Z M3.9680326,2.55381904 C4.56354585,2.20192937 5.25819134,2 6,2 C8.20913916,2 10,3.79086084 10,6 C10,6.74180866 9.79807063,7.43645415 9.44618096,8.0319674 L9.23204441,7.81783085 L4.20710678,2.79289322 L3.9680326,2.55381904 Z M12,6 C12,2.68629134 9.31370866,0 6,0 C2.68629134,0 0,2.68629134 0,6 C0,9.31370866 2.68629134,12 6,12 C9.31370866,12 12,9.31370866 12,6 Z" id="Oval-397"></path>
                </g>
                <g id="Triangle-1-+-Triangle-1-copy">
                    <g id="Triangle-1">
                        <use fill="none" sketch:type="MSShapeGroup" xlink:href="#path-1"></use>
                        <use fill="#49C9E6" fill-rule="evenodd" xlink:href="#path-1"></use>
                    </g>
                </g>
            </g>
            <path d="M10.0078735,0 L14.0034404,8 L18.0078735,0 L10.0078735,0 Z" id="Path-593" fill="#49C9E6" sketch:type="MSShapeGroup"></path>
        </g>
    </g>
</svg>